<svg height="24" viewBox="0 0 28 24" width="28" xmlns="http://www.w3.org/2000/svg"><path d="m236.28286 23c.652997 0 1.251239.3590498 1.557133.9173525l.032773.0628455 1.324921 2.6732673h4.328075c1.884333 0 3.397596 1.4973953 3.471817 3.358064l.002421.0874806v13.4257426c0 1.9009901-1.512818 3.4276314-3.35806 3.474155l-.086735.0010925h-21.11041c-1.884332 0-3.397596-1.5261913-3.443712-3.3877461l-.001083-.0875014v-13.4257426c0-1.8717441 1.484274-3.3979354 3.356743-3.4444522l.088052-.0010924h4.328076l1.324921-2.6732673c.283911-.572843.868972-.9523515 1.517587-.9787285l.072318-.0014695zm-3.297581 6.5940594c-3.70978 0-6.712934 3-6.712934 6.7425743 0 3.7425742 3.003154 6.7722772 6.712934 6.7722772 3.709779 0 6.712933-3 6.712933-6.7425743 0-3.7425742-3.003154-6.7722772-6.712933-6.7722772zm0 2.1386139c2.502628 0 4.563617 2.0792079 4.563617 4.6039604 0 2.5247524-2.060989 4.6039604-4.563617 4.6039604-2.502629 0-4.563618-2.079208-4.563618-4.6039604 0-2.5247525 2.060989-4.6039604 4.563618-4.6039604z" fill="#9E9E9E" transform="translate(-219 -23)"/></svg>
