<svg width="20px" height="19px" viewBox="0 0 20 19" version="1.1" xmlns="http://www.w3.org/2000/svg" xmlns:xlink="http://www.w3.org/1999/xlink">
    <g id="UI" stroke="none" stroke-width="1" fill="none" fill-rule="evenodd">
        <g id="Artboard" transform="translate(-161.000000, -161.000000)" fill="#FFE937" fill-rule="nonzero">
            <path d="M179.33305,176.667239 C179.291878,176.713268 179.250271,176.75892 179.208234,176.804189 L179.125029,176.892326 L179.125029,176.892326 L179.094915,176.923841 C179.086468,176.932643 179.078004,176.94143 179.069523,176.950202 C179.007533,177.01467 178.94473,177.077896 178.881061,177.140297 C178.848907,177.171502 178.81662,177.202729 178.784116,177.233745 C178.761042,177.256045 178.738076,177.277745 178.715003,177.299339 L178.608348,177.397476 L178.608348,177.397476 L178.547491,177.452361 C178.538644,177.460274 178.529782,177.468173 178.520905,177.476056 C178.457863,177.532238 178.394048,177.587466 178.329497,177.641917 C178.294687,177.67113 178.259862,177.700113 178.224827,177.72887 C178.184215,177.762328 178.142956,177.795643 178.101413,177.828645 C178.048634,177.870489 177.995299,177.912004 177.94151,177.953004 C177.74439,178.103279 177.541194,178.246597 177.332226,178.382666 C176.84752,178.698262 176.339235,178.96948 175.81279,179.194714 L175.81294,179.194694 L175.737382,179.226655 C174.520092,179.735663 173.207707,180 171.866575,180 C166.360339,180 161.880662,175.548293 161.880662,170.076436 C161.880662,169.712964 161.900444,169.351615 161.939609,168.993728 L161.985297,168.636966 C162.062368,168.110594 162.181655,167.592791 162.34186,167.087902 C162.341993,167.087313 162.342205,167.086647 162.342416,167.08598 C162.614895,166.227894 163.005575,165.407132 163.50808,164.645028 L163.476,164.695 L163.508158,164.64495 C163.576415,164.541429 163.646485,164.439333 163.718323,164.338701 C163.741136,164.306737 163.763978,164.27514 163.786994,164.243691 C163.841265,164.169509 163.896676,164.095931 163.953044,164.02319 C163.966226,164.006252 163.97931,163.989486 163.992445,163.972764 C164.055164,163.892804 164.119166,163.813808 164.184309,163.735863 C164.212838,163.701908 164.241802,163.667733 164.270987,163.633764 C164.318877,163.577796 164.367139,163.522838 164.415979,163.468439 C164.448153,163.43289 164.48071,163.397165 164.513518,163.361686 C164.569154,163.30118 164.625668,163.241536 164.682891,163.182617 C164.713492,163.151503 164.743654,163.120862 164.774009,163.090421 C164.846368,163.017417 164.920352,162.945458 164.995421,162.874678 C165.093962,162.782256 165.193857,162.691843 165.295536,162.603485 L165.025624,162.84632 C165.092993,162.783327 165.161225,162.721278 165.230301,162.660191 L165.295536,162.603485 C165.293787,162.605453 165.292039,162.607421 165.290292,162.60939 C166.014846,161.976925 166.831493,161.450577 167.717718,161.047794 C167.938694,160.947177 168.200139,161.009248 168.35174,161.198022 C168.503341,161.386835 168.506271,161.653829 168.358732,161.845786 C167.231313,163.312505 166.635299,165.065588 166.635299,166.915212 C166.635299,170.61023 169.060215,173.753093 172.411691,174.854762 L172.411691,174.854762 L173.538837,175.14035 C174.028523,175.228739 174.532819,175.274972 175.0477,175.274972 C176.909024,175.274972 178.673043,174.682757 180.148977,173.5623 C180.342102,173.415721 180.610851,173.418593 180.800811,173.569209 C180.990733,173.719903 181.053076,173.979676 180.951983,174.19935 C180.540134,175.094218 179.999935,175.917693 179.350924,176.647203 L179.35269,176.6448 Z M162.607613,177.985125 C163.013347,177.985125 163.34226,178.311984 163.34226,178.715185 C163.34226,179.118386 163.013347,179.445245 162.607613,179.445245 C162.201879,179.445245 161.872967,179.118386 161.872967,178.715185 C161.872967,178.311984 162.201879,177.985125 162.607613,177.985125 Z M161.436366,175.448064 C161.677364,175.448064 161.872732,175.642212 161.872732,175.881705 C161.872732,176.121199 161.677364,176.315347 161.436366,176.315347 C161.195368,176.315347 161,176.121199 161,175.881705 C161,175.642212 161.195368,175.448064 161.436366,175.448064 Z M172.832862,170.241493 C173.07386,170.241493 173.269228,170.43564 173.269228,170.675134 C173.269228,170.914628 173.07386,171.108776 172.832862,171.108776 C172.591864,171.108776 172.396496,170.914628 172.396496,170.675134 C172.396496,170.43564 172.591864,170.241493 172.832862,170.241493 Z M175.919495,169.511433 C176.325229,169.511433 176.654142,169.838292 176.654142,170.241493 C176.654142,170.644693 176.325229,170.971552 175.919495,170.971552 C175.513761,170.971552 175.184848,170.644693 175.184848,170.241493 C175.184848,169.838292 175.513761,169.511433 175.919495,169.511433 Z M172.836281,164.587848 C172.896359,164.587848 172.945031,164.636216 172.945031,164.695919 C172.945031,165.022499 173.03714,165.328078 173.196788,165.588395 C173.196715,165.588734 173.196643,165.589073 173.19657,165.589411 C173.498832,166.085011 174.047415,166.415851 174.672311,166.415851 C174.73235,166.415851 174.781099,166.464219 174.78106,166.523921 C174.78106,166.583624 174.732389,166.631992 174.672311,166.631992 C174.069648,166.631992 173.537912,166.939729 173.227909,167.405398 L173.196,167.458 C173.063787,167.676061 172.977649,167.924403 172.952632,168.19015 L172.94507,168.351575 C172.94507,168.411277 172.896398,168.459645 172.83632,168.459645 L172.83632,168.459645 C172.772862,168.459878 172.72419,168.41151 172.72419,168.351807 C172.72419,168.276429 172.719285,168.202166 172.709774,168.12932 C172.705864,168.09927 172.701186,168.069641 172.695754,168.040271 L172.709774,168.12932 C172.703182,168.07883 172.694377,168.029021 172.683461,167.979991 L172.695754,168.040271 C172.686584,167.990686 172.675264,167.94184 172.661894,167.893832 L172.683461,167.979991 C172.672601,167.931215 172.659651,167.883209 172.644709,167.836073 L172.661894,167.893832 C172.646684,167.839215 172.628822,167.785682 172.608454,167.733379 L172.644709,167.836073 C172.629091,167.786805 172.611297,167.738488 172.59144,167.691231 L172.608454,167.733379 C172.593331,167.694544 172.576826,167.656386 172.559001,167.618966 L172.59144,167.691231 C172.569822,167.639786 172.545759,167.589599 172.519395,167.540814 L172.559001,167.618966 C172.539837,167.578734 172.519145,167.539354 172.497002,167.5009 L172.519395,167.540814 C172.496153,167.497805 172.471123,167.455887 172.444405,167.415157 L172.497002,167.5009 C172.470611,167.45507 172.442158,167.410555 172.41177,167.36748 L172.444405,167.415157 C172.419187,167.376715 172.392466,167.339332 172.364324,167.303091 L172.41177,167.36748 C172.279714,167.180294 172.111112,167.020308 171.91638,166.897783 L171.93415,166.908769 C171.908297,166.89207 171.881969,166.876038 171.855192,166.860698 C171.808574,166.834305 171.760548,166.809704 171.711302,166.787266 C171.691669,166.77846 171.67978,166.773275 171.667824,166.768221 C171.594439,166.736953 171.518793,166.710981 171.441003,166.690273 C171.419584,166.68485 171.398334,166.679648 171.376928,166.674809 L171.421982,166.685325 C171.337228,166.663795 171.24999,166.648499 171.160796,166.63996 L171.146,166.639 C171.136213,166.638084 171.135224,166.638004 171.134234,166.637924 L170.99353,166.631992 L170.99353,166.631992 L170.951154,166.623308 C170.91212,166.606906 170.884742,166.568505 170.884742,166.523727 L170.884742,166.523727 L170.893285,166.481654 C170.90979,166.442864 170.948433,166.415657 170.993491,166.415657 L170.993491,166.415657 L171.118,166.41 L171.133,166.409 L171.137202,166.40929 L171.167835,166.407195 C171.203039,166.403681 171.237935,166.399113 171.272491,166.393525 C171.281307,166.391749 171.290293,166.390212 171.299255,166.388605 L171.272491,166.393525 C171.359476,166.379459 171.444305,166.358926 171.526462,166.332441 C171.54393,166.326254 171.561812,166.320155 171.579561,166.313776 L171.526462,166.332441 C171.566318,166.319592 171.605544,166.305343 171.644083,166.289751 L171.703451,166.26376 C171.706029,166.262556 171.708646,166.261392 171.711263,166.260227 C171.782318,166.227853 171.850833,166.190897 171.916341,166.149711 L171.879454,166.172989 C171.894214,166.164213 171.908833,166.155224 171.923305,166.146028 C172.092239,166.038046 172.241903,165.901743 172.364569,165.743749 C172.378697,165.726226 172.39199,165.708383 172.404941,165.690282 L172.364569,165.743749 C172.393818,165.706077 172.421532,165.667171 172.447617,165.627124 L172.404941,165.690282 C172.434956,165.648327 172.463127,165.604982 172.489335,165.560366 L172.447617,165.627124 C172.474781,165.585422 172.500178,165.542482 172.523702,165.498412 L172.489335,165.560366 C172.51291,165.520231 172.534897,165.479067 172.555209,165.436959 L172.523702,165.498412 C172.549354,165.450352 172.572779,165.400947 172.593838,165.350333 L172.555209,165.436959 C172.575933,165.393998 172.594914,165.350054 172.612059,165.305219 L172.593838,165.350333 C172.612226,165.306138 172.62881,165.261022 172.643499,165.215074 L172.612059,165.305219 C172.631056,165.255541 172.647801,165.20477 172.662167,165.153028 L172.643499,165.215074 C172.658504,165.168137 172.67153,165.120332 172.682481,165.071757 L172.662167,165.153028 C172.675542,165.10486 172.686856,165.055851 172.696009,165.006101 L172.682481,165.071757 C172.693928,165.020977 172.703106,164.969355 172.709904,164.917001 L172.696009,165.006101 C172.714519,164.905487 172.72419,164.801844 172.72419,164.695997 C172.72419,164.681071 172.727232,164.666854 172.732734,164.653923 L172.755997,164.619495 C172.775675,164.59994 172.802862,164.587848 172.832901,164.587848 L172.832901,164.587848 Z M175.631058,163.539438 C175.872057,163.539438 176.067424,163.733586 176.067424,163.97308 C176.067424,164.212573 175.872057,164.406721 175.631058,164.406721 C175.39006,164.406721 175.194692,164.212573 175.194692,163.97308 C175.194692,163.733586 175.39006,163.539438 175.631058,163.539438 Z" id="moon"></path>
        </g>
    </g>
</svg>
